STARTFONT 2.1
FONT -Adobe-Helvetica-Bold-R-Narrow--11-80-100-100-P-48-ISO8859-1
SIZE 8 100 100
FONTBOUNDINGBOX 11 11 -1 -2

STARTPROPERTIES 26
_DEC_DEVICE_FONTNAMES "PS=Helvetica-Narrow-Bold"
FONTNAME_REGISTRY ""
FAMILY_NAME "Helvetica"
FOUNDRY "Adobe"
WEIGHT_NAME "Bold"
SLANT "R"
SETWIDTH_NAME "Narrow"
ADD_STYLE_NAME ""
PIXEL_SIZE 11
POINT_SIZE 80
RESOLUTION_X 100
RESOLUTION_Y 100
SPACING "P"
AVERAGE_WIDTH 48
CHARSET_REGISTRY "ISO8859"
CHARSET_ENCODING "1"
CHARSET_COLLECTIONS "ASCII ISO8859-1 ADOBE-STANDARD"
FULL_NAME "Helvetica Narrow Bold"
COPYRIGHT "Copyright (c) 1991 Adobe Systems, Inc."
CAP_HEIGHT 8
X_HEIGHT 6
WEIGHT 10
QUAD_WIDTH 5
DEFAULT_CHAR 0
FONT_DESCENT 2
FONT_ASCENT 9
ENDPROPERTIES

CHARS 190

STARTCHAR space
ENCODING 32
SWIDTH 228 0
DWIDTH 2 0
BBX 1 1 0 0
BITMAP
00
ENDCHAR

STARTCHAR exclam
ENCODING 33
SWIDTH 273 0
DWIDTH 3 0
BBX 2 8 0 0
BITMAP
C0
C0
C0
C0
C0
00
C0
C0
ENDCHAR

STARTCHAR quotedbl
ENCODING 34
SWIDTH 389 0
DWIDTH 4 0
BBX 3 3 0 5
BITMAP
A0
A0
A0
ENDCHAR

STARTCHAR numbersign
ENCODING 35
SWIDTH 456 0
DWIDTH 5 0
BBX 7 8 -1 0
BITMAP
14
14
7E
28
28
FC
50
50
ENDCHAR

STARTCHAR dollar
ENCODING 36
SWIDTH 456 0
DWIDTH 5 0
BBX 4 10 0 -1
BITMAP
20
70
90
80
E0
70
10
90
E0
40
ENDCHAR

STARTCHAR percent
ENCODING 37
SWIDTH 729 0
DWIDTH 8 0
BBX 7 8 0 0
BITMAP
64
AC
A8
D8
36
2A
6A
4C
ENDCHAR

STARTCHAR ampersand
ENCODING 38
SWIDTH 592 0
DWIDTH 6 0
BBX 6 8 0 0
BITMAP
30
68
68
30
74
DC
D8
6C
ENDCHAR

STARTCHAR quoteright
ENCODING 39
SWIDTH 228 0
DWIDTH 2 0
BBX 2 3 -1 5
BITMAP
40
40
80
ENDCHAR

STARTCHAR parenleft
ENCODING 40
SWIDTH 273 0
DWIDTH 3 0
BBX 3 10 0 -2
BITMAP
20
60
40
C0
C0
C0
C0
40
60
20
ENDCHAR

STARTCHAR parenright
ENCODING 41
SWIDTH 273 0
DWIDTH 3 0
BBX 3 10 0 -2
BITMAP
80
C0
40
60
60
60
60
40
C0
80
ENDCHAR

STARTCHAR asterisk
ENCODING 42
SWIDTH 319 0
DWIDTH 3 0
BBX 3 4 0 4
BITMAP
40
E0
40
A0
ENDCHAR

STARTCHAR plus
ENCODING 43
SWIDTH 479 0
DWIDTH 5 0
BBX 5 5 0 0
BITMAP
20
20
F8
20
20
ENDCHAR

STARTCHAR comma
ENCODING 44
SWIDTH 228 0
DWIDTH 2 0
BBX 2 3 -1 -1
BITMAP
40
40
80
ENDCHAR

STARTCHAR minus
ENCODING 45
SWIDTH 479 0
DWIDTH 5 0
BBX 5 1 0 2
BITMAP
F8
ENDCHAR

STARTCHAR period
ENCODING 46
SWIDTH 228 0
DWIDTH 2 0
BBX 1 2 0 0
BITMAP
80
80
ENDCHAR

STARTCHAR slash
ENCODING 47
SWIDTH 228 0
DWIDTH 2 0
BBX 3 9 -1 -1
BITMAP
20
20
20
40
40
40
80
80
80
ENDCHAR

STARTCHAR zero
ENCODING 48
SWIDTH 456 0
DWIDTH 5 0
BBX 4 8 0 0
BITMAP
60
F0
D0
D0
D0
D0
F0
60
ENDCHAR

STARTCHAR one
ENCODING 49
SWIDTH 456 0
DWIDTH 5 0
BBX 3 8 0 0
BITMAP
20
E0
60
60
60
60
60
60
ENDCHAR

STARTCHAR two
ENCODING 50
SWIDTH 456 0
DWIDTH 5 0
BBX 4 8 0 0
BITMAP
60
B0
30
30
60
C0
C0
F0
ENDCHAR

STARTCHAR three
ENCODING 51
SWIDTH 456 0
DWIDTH 5 0
BBX 4 8 0 0
BITMAP
60
B0
30
60
30
30
B0
60
ENDCHAR

STARTCHAR four
ENCODING 52
SWIDTH 456 0
DWIDTH 5 0
BBX 5 8 0 0
BITMAP
10
30
70
50
D0
F8
10
10
ENDCHAR

STARTCHAR five
ENCODING 53
SWIDTH 456 0
DWIDTH 5 0
BBX 4 8 0 0
BITMAP
F0
C0
C0
E0
30
30
30
E0
ENDCHAR

STARTCHAR six
ENCODING 54
SWIDTH 456 0
DWIDTH 5 0
BBX 4 8 0 0
BITMAP
60
D0
C0
E0
D0
D0
D0
60
ENDCHAR

STARTCHAR seven
ENCODING 55
SWIDTH 456 0
DWIDTH 5 0
BBX 4 8 0 0
BITMAP
F0
F0
10
20
20
60
60
60
ENDCHAR

STARTCHAR eight
ENCODING 56
SWIDTH 456 0
DWIDTH 5 0
BBX 4 8 0 0
BITMAP
60
D0
D0
60
D0
D0
D0
60
ENDCHAR

STARTCHAR nine
ENCODING 57
SWIDTH 456 0
DWIDTH 5 0
BBX 4 8 0 0
BITMAP
60
B0
B0
B0
70
30
B0
60
ENDCHAR

STARTCHAR colon
ENCODING 58
SWIDTH 273 0
DWIDTH 3 0
BBX 1 6 0 0
BITMAP
80
80
00
00
80
80
ENDCHAR

STARTCHAR semicolon
ENCODING 59
SWIDTH 273 0
DWIDTH 3 0
BBX 2 7 -1 -1
BITMAP
40
40
00
00
40
40
80
ENDCHAR

STARTCHAR less
ENCODING 60
SWIDTH 479 0
DWIDTH 5 0
BBX 4 5 0 0
BITMAP
30
60
C0
60
30
ENDCHAR

STARTCHAR equal
ENCODING 61
SWIDTH 479 0
DWIDTH 5 0
BBX 4 3 0 1
BITMAP
F0
00
F0
ENDCHAR

STARTCHAR greater
ENCODING 62
SWIDTH 479 0
DWIDTH 5 0
BBX 4 5 0 0
BITMAP
C0
60
30
60
C0
ENDCHAR

STARTCHAR question
ENCODING 63
SWIDTH 501 0
DWIDTH 5 0
BBX 5 8 0 0
BITMAP
70
D8
18
30
60
00
60
60
ENDCHAR

STARTCHAR at
ENCODING 64
SWIDTH 800 0
DWIDTH 8 0
BBX 8 10 0 -2
BITMAP
1C
62
41
9D
B5
B5
B6
9C
40
3C
ENDCHAR

STARTCHAR A
ENCODING 65
SWIDTH 592 0
DWIDTH 6 0
BBX 5 8 0 0
BITMAP
20
30
70
70
58
F8
D8
D8
ENDCHAR

STARTCHAR B
ENCODING 66
SWIDTH 592 0
DWIDTH 6 0
BBX 5 8 0 0
BITMAP
F0
D8
D8
F0
D8
D8
D8
F0
ENDCHAR

STARTCHAR C
ENCODING 67
SWIDTH 592 0
DWIDTH 6 0
BBX 5 8 0 0
BITMAP
70
D8
C0
C0
C0
C0
D8
70
ENDCHAR

STARTCHAR D
ENCODING 68
SWIDTH 592 0
DWIDTH 6 0
BBX 5 8 0 0
BITMAP
F0
D8
D8
D8
D8
D8
D8
F0
ENDCHAR

STARTCHAR E
ENCODING 69
SWIDTH 547 0
DWIDTH 6 0
BBX 4 8 1 0
BITMAP
F0
C0
C0
F0
C0
C0
C0
F0
ENDCHAR

STARTCHAR F
ENCODING 70
SWIDTH 501 0
DWIDTH 5 0
BBX 4 8 0 0
BITMAP
F0
C0
C0
F0
C0
C0
C0
C0
ENDCHAR

STARTCHAR G
ENCODING 71
SWIDTH 638 0
DWIDTH 7 0
BBX 6 8 0 0
BITMAP
78
CC
C0
C0
DC
CC
DC
6C
ENDCHAR

STARTCHAR H
ENCODING 72
SWIDTH 592 0
DWIDTH 6 0
BBX 5 8 0 0
BITMAP
D8
D8
D8
F8
D8
D8
D8
D8
ENDCHAR

STARTCHAR I
ENCODING 73
SWIDTH 228 0
DWIDTH 3 0
BBX 2 8 0 0
BITMAP
C0
C0
C0
C0
C0
C0
C0
C0
ENDCHAR

STARTCHAR J
ENCODING 74
SWIDTH 456 0
DWIDTH 5 0
BBX 4 8 0 0
BITMAP
30
30
30
30
30
30
B0
E0
ENDCHAR

STARTCHAR K
ENCODING 75
SWIDTH 592 0
DWIDTH 6 0
BBX 5 8 0 0
BITMAP
C8
D8
F0
E0
F0
F0
D8
D8
ENDCHAR

STARTCHAR L
ENCODING 76
SWIDTH 501 0
DWIDTH 5 0
BBX 4 8 0 0
BITMAP
C0
C0
C0
C0
C0
C0
C0
F0
ENDCHAR

STARTCHAR M
ENCODING 77
SWIDTH 683 0
DWIDTH 7 0
BBX 6 8 0 0
BITMAP
CC
CC
EC
EC
D4
D4
D4
D4
ENDCHAR

STARTCHAR N
ENCODING 78
SWIDTH 592 0
DWIDTH 6 0
BBX 5 8 0 0
BITMAP
88
C8
E8
F8
B8
98
88
88
ENDCHAR

STARTCHAR O
ENCODING 79
SWIDTH 638 0
DWIDTH 7 0
BBX 5 8 1 0
BITMAP
70
D8
D8
D8
D8
D8
D8
70
ENDCHAR

STARTCHAR P
ENCODING 80
SWIDTH 547 0
DWIDTH 6 0
BBX 5 8 0 0
BITMAP
F0
D8
D8
D8
F0
C0
C0
C0
ENDCHAR

STARTCHAR Q
ENCODING 81
SWIDTH 638 0
DWIDTH 7 0
BBX 5 9 1 -1
BITMAP
70
D8
D8
D8
D8
D8
D8
70
18
ENDCHAR

STARTCHAR R
ENCODING 82
SWIDTH 592 0
DWIDTH 6 0
BBX 5 8 0 0
BITMAP
F0
D8
D8
D8
F0
D8
D8
D8
ENDCHAR

STARTCHAR S
ENCODING 83
SWIDTH 547 0
DWIDTH 6 0
BBX 5 8 0 0
BITMAP
70
D8
C0
70
18
D8
D8
70
ENDCHAR

STARTCHAR T
ENCODING 84
SWIDTH 501 0
DWIDTH 5 0
BBX 4 8 0 0
BITMAP
F0
60
60
60
60
60
60
60
ENDCHAR

STARTCHAR U
ENCODING 85
SWIDTH 592 0
DWIDTH 6 0
BBX 5 8 0 0
BITMAP
D8
D8
D8
D8
D8
D8
D8
70
ENDCHAR

STARTCHAR V
ENCODING 86
SWIDTH 547 0
DWIDTH 6 0
BBX 6 8 0 0
BITMAP
CC
CC
CC
68
68
78
30
30
ENDCHAR

STARTCHAR W
ENCODING 87
SWIDTH 774 0
DWIDTH 8 0
BBX 7 8 0 0
BITMAP
D6
D6
D6
D6
7C
6C
6C
6C
ENDCHAR

STARTCHAR X
ENCODING 88
SWIDTH 547 0
DWIDTH 6 0
BBX 5 8 0 0
BITMAP
D8
D8
70
70
30
58
D8
D8
ENDCHAR

STARTCHAR Y
ENCODING 89
SWIDTH 547 0
DWIDTH 6 0
BBX 6 8 0 0
BITMAP
CC
CC
68
78
30
30
30
30
ENDCHAR

STARTCHAR Z
ENCODING 90
SWIDTH 501 0
DWIDTH 5 0
BBX 4 8 0 0
BITMAP
F0
30
30
60
60
C0
C0
F0
ENDCHAR

STARTCHAR bracketleft
ENCODING 91
SWIDTH 273 0
DWIDTH 3 0
BBX 3 10 0 -2
BITMAP
E0
C0
C0
C0
C0
C0
C0
C0
C0
E0
ENDCHAR

STARTCHAR backslash
ENCODING 92
SWIDTH 228 0
DWIDTH 2 0
BBX 3 8 0 0
BITMAP
80
80
80
40
40
20
20
20
ENDCHAR

STARTCHAR bracketright
ENCODING 93
SWIDTH 273 0
DWIDTH 3 0
BBX 3 10 -1 -2
BITMAP
E0
60
60
60
60
60
60
60
60
E0
ENDCHAR

STARTCHAR asciicircum
ENCODING 94
SWIDTH 479 0
DWIDTH 5 0
BBX 5 4 0 4
BITMAP
20
70
D8
88
ENDCHAR

STARTCHAR underscore
ENCODING 95
SWIDTH 456 0
DWIDTH 5 0
BBX 5 1 0 -2
BITMAP
F8
ENDCHAR

STARTCHAR quoteleft
ENCODING 96
SWIDTH 228 0
DWIDTH 2 0
BBX 2 3 0 5
BITMAP
40
80
80
ENDCHAR

STARTCHAR a
ENCODING 97
SWIDTH 456 0
DWIDTH 5 0
BBX 4 6 0 0
BITMAP
E0
30
70
D0
D0
70
ENDCHAR

STARTCHAR b
ENCODING 98
SWIDTH 501 0
DWIDTH 5 0
BBX 4 8 0 0
BITMAP
C0
C0
E0
D0
D0
D0
D0
E0
ENDCHAR

STARTCHAR c
ENCODING 99
SWIDTH 456 0
DWIDTH 5 0
BBX 4 6 0 0
BITMAP
60
D0
C0
C0
D0
60
ENDCHAR

STARTCHAR d
ENCODING 100
SWIDTH 501 0
DWIDTH 5 0
BBX 4 8 0 0
BITMAP
30
30
70
B0
B0
B0
B0
70
ENDCHAR

STARTCHAR e
ENCODING 101
SWIDTH 456 0
DWIDTH 5 0
BBX 4 6 0 0
BITMAP
60
D0
F0
C0
D0
60
ENDCHAR

STARTCHAR f
ENCODING 102
SWIDTH 273 0
DWIDTH 3 0
BBX 4 8 -1 0
BITMAP
30
60
F0
60
60
60
60
60
ENDCHAR

STARTCHAR g
ENCODING 103
SWIDTH 501 0
DWIDTH 5 0
BBX 4 8 0 -2
BITMAP
70
B0
B0
B0
B0
70
30
60
ENDCHAR

STARTCHAR h
ENCODING 104
SWIDTH 501 0
DWIDTH 5 0
BBX 4 8 0 0
BITMAP
80
80
E0
D0
D0
D0
D0
D0
ENDCHAR

STARTCHAR i
ENCODING 105
SWIDTH 228 0
DWIDTH 2 0
BBX 1 8 0 0
BITMAP
80
00
80
80
80
80
80
80
ENDCHAR

STARTCHAR j
ENCODING 106
SWIDTH 228 0
DWIDTH 2 0
BBX 2 10 -1 -2
BITMAP
40
00
40
40
40
40
40
40
40
80
ENDCHAR

STARTCHAR k
ENCODING 107
SWIDTH 456 0
DWIDTH 5 0
BBX 4 8 0 0
BITMAP
C0
C0
D0
F0
E0
E0
F0
D0
ENDCHAR

STARTCHAR l
ENCODING 108
SWIDTH 228 0
DWIDTH 2 0
BBX 1 8 0 0
BITMAP
80
80
80
80
80
80
80
80
ENDCHAR

STARTCHAR m
ENCODING 109
SWIDTH 729 0
DWIDTH 8 0
BBX 7 6 0 0
BITMAP
FC
D6
D6
D6
D6
D6
ENDCHAR

STARTCHAR n
ENCODING 110
SWIDTH 501 0
DWIDTH 5 0
BBX 4 6 0 0
BITMAP
A0
F0
B0
B0
B0
B0
ENDCHAR

STARTCHAR o
ENCODING 111
SWIDTH 501 0
DWIDTH 5 0
BBX 4 6 0 0
BITMAP
60
B0
B0
B0
B0
60
ENDCHAR

STARTCHAR p
ENCODING 112
SWIDTH 501 0
DWIDTH 5 0
BBX 4 8 0 -2
BITMAP
E0
D0
D0
D0
D0
E0
80
80
ENDCHAR

STARTCHAR q
ENCODING 113
SWIDTH 501 0
DWIDTH 5 0
BBX 4 8 0 -2
BITMAP
70
B0
B0
B0
B0
70
30
30
ENDCHAR

STARTCHAR r
ENCODING 114
SWIDTH 319 0
DWIDTH 3 0
BBX 3 6 0 0
BITMAP
A0
E0
C0
C0
C0
C0
ENDCHAR

STARTCHAR s
ENCODING 115
SWIDTH 456 0
DWIDTH 5 0
BBX 3 6 1 0
BITMAP
60
C0
C0
60
60
C0
ENDCHAR

STARTCHAR t
ENCODING 116
SWIDTH 273 0
DWIDTH 3 0
BBX 4 8 -1 0
BITMAP
60
60
F0
60
60
60
60
30
ENDCHAR

STARTCHAR u
ENCODING 117
SWIDTH 501 0
DWIDTH 5 0
BBX 4 6 0 0
BITMAP
B0
B0
B0
B0
B0
50
ENDCHAR

STARTCHAR v
ENCODING 118
SWIDTH 456 0
DWIDTH 5 0
BBX 4 6 0 0
BITMAP
B0
B0
B0
60
60
60
ENDCHAR

STARTCHAR w
ENCODING 119
SWIDTH 638 0
DWIDTH 7 0
BBX 6 6 0 0
BITMAP
AC
AC
AC
FC
68
68
ENDCHAR

STARTCHAR x
ENCODING 120
SWIDTH 456 0
DWIDTH 5 0
BBX 4 6 0 0
BITMAP
90
F0
60
60
F0
90
ENDCHAR

STARTCHAR y
ENCODING 121
SWIDTH 456 0
DWIDTH 5 0
BBX 4 8 0 -2
BITMAP
B0
B0
B0
70
60
60
40
C0
ENDCHAR

STARTCHAR z
ENCODING 122
SWIDTH 410 0
DWIDTH 4 0
BBX 4 6 0 0
BITMAP
F0
30
60
60
C0
F0
ENDCHAR

STARTCHAR braceleft
ENCODING 123
SWIDTH 319 0
DWIDTH 3 0
BBX 4 10 -1 -2
BITMAP
30
60
60
60
C0
60
60
60
60
30
ENDCHAR

STARTCHAR bar
ENCODING 124
SWIDTH 230 0
DWIDTH 2 0
BBX 1 8 0 0
BITMAP
80
80
80
80
80
80
80
80
ENDCHAR

STARTCHAR braceright
ENCODING 125
SWIDTH 319 0
DWIDTH 3 0
BBX 4 10 -1 -2
BITMAP
C0
60
60
60
30
60
60
60
60
C0
ENDCHAR

STARTCHAR asciitilde
ENCODING 126
SWIDTH 479 0
DWIDTH 5 0
BBX 5 2 0 2
BITMAP
68
B0
ENDCHAR

STARTCHAR exclamdown
ENCODING 161
SWIDTH 273 0
DWIDTH 3 0
BBX 2 8 0 -2
BITMAP
C0
C0
00
C0
C0
C0
C0
C0
ENDCHAR

STARTCHAR cent
ENCODING 162
SWIDTH 456 0
DWIDTH 5 0
BBX 4 8 0 -1
BITMAP
20
60
F0
A0
A0
F0
60
40
ENDCHAR

STARTCHAR sterling
ENCODING 163
SWIDTH 456 0
DWIDTH 5 0
BBX 5 8 0 0
BITMAP
70
D8
C0
60
F0
60
E8
B0
ENDCHAR

STARTCHAR currency
ENCODING 164
SWIDTH 456 0
DWIDTH 5 0
BBX 4 6 0 1
BITMAP
90
60
90
90
60
90
ENDCHAR

STARTCHAR yen
ENCODING 165
SWIDTH 456 0
DWIDTH 5 0
BBX 6 8 -1 0
BITMAP
CC
48
30
FC
30
FC
30
30
ENDCHAR

STARTCHAR brokenbar
ENCODING 166
SWIDTH 230 0
DWIDTH 2 0
BBX 1 8 0 0
BITMAP
80
80
80
00
80
80
80
80
ENDCHAR

STARTCHAR section
ENCODING 167
SWIDTH 456 0
DWIDTH 5 0
BBX 4 10 0 -2
BITMAP
60
D0
C0
60
D0
D0
50
30
B0
60
ENDCHAR

STARTCHAR dieresis
ENCODING 168
SWIDTH 273 0
DWIDTH 3 0
BBX 3 1 0 7
BITMAP
A0
ENDCHAR

STARTCHAR copyright
ENCODING 169
SWIDTH 604 0
DWIDTH 6 0
BBX 6 7 0 1
BITMAP
30
48
B4
A4
B4
48
30
ENDCHAR

STARTCHAR ordfeminine
ENCODING 170
SWIDTH 303 0
DWIDTH 3 0
BBX 3 5 0 3
BITMAP
E0
60
A0
00
E0
ENDCHAR

STARTCHAR guillemotleft
ENCODING 171
SWIDTH 456 0
DWIDTH 5 0
BBX 4 4 0 1
BITMAP
50
A0
A0
50
ENDCHAR

STARTCHAR logicalnot
ENCODING 172
SWIDTH 479 0
DWIDTH 5 0
BBX 4 3 0 1
BITMAP
F0
30
30
ENDCHAR

STARTCHAR hyphen
ENCODING 173
SWIDTH 273 0
DWIDTH 3 0
BBX 2 1 0 3
BITMAP
C0
ENDCHAR

STARTCHAR registered
ENCODING 174
SWIDTH 604 0
DWIDTH 6 0
BBX 6 7 0 1
BITMAP
30
48
B4
B4
AC
48
30
ENDCHAR

STARTCHAR macron
ENCODING 175
SWIDTH 273 0
DWIDTH 3 0
BBX 3 1 0 7
BITMAP
E0
ENDCHAR

STARTCHAR degree
ENCODING 176
SWIDTH 328 0
DWIDTH 3 0
BBX 3 3 0 5
BITMAP
40
A0
40
ENDCHAR

STARTCHAR plusminus
ENCODING 177
SWIDTH 479 0
DWIDTH 5 0
BBX 5 7 0 0
BITMAP
20
20
F8
20
20
00
F8
ENDCHAR

STARTCHAR twosuperior
ENCODING 178
SWIDTH 273 0
DWIDTH 3 0
BBX 3 4 0 4
BITMAP
60
A0
40
E0
ENDCHAR

STARTCHAR threesuperior
ENCODING 179
SWIDTH 273 0
DWIDTH 3 0
BBX 3 4 0 4
BITMAP
E0
40
20
C0
ENDCHAR

STARTCHAR acute
ENCODING 180
SWIDTH 273 0
DWIDTH 3 0
BBX 2 2 1 7
BITMAP
40
80
ENDCHAR

STARTCHAR mu
ENCODING 181
SWIDTH 501 0
DWIDTH 5 0
BBX 4 8 0 -2
BITMAP
B0
B0
B0
B0
B0
D0
80
80
ENDCHAR

STARTCHAR paragraph
ENCODING 182
SWIDTH 456 0
DWIDTH 5 0
BBX 5 10 -1 -2
BITMAP
38
68
E8
E8
68
28
28
28
28
28
ENDCHAR

STARTCHAR periodcentered
ENCODING 183
SWIDTH 228 0
DWIDTH 2 0
BBX 1 2 0 3
BITMAP
80
80
ENDCHAR

STARTCHAR cedilla
ENCODING 184
SWIDTH 273 0
DWIDTH 3 0
BBX 2 2 0 -2
BITMAP
40
C0
ENDCHAR

STARTCHAR onesuperior
ENCODING 185
SWIDTH 273 0
DWIDTH 3 0
BBX 2 4 0 4
BITMAP
C0
40
40
40
ENDCHAR

STARTCHAR ordmasculine
ENCODING 186
SWIDTH 299 0
DWIDTH 3 0
BBX 3 5 0 3
BITMAP
E0
A0
E0
00
E0
ENDCHAR

STARTCHAR guillemotright
ENCODING 187
SWIDTH 456 0
DWIDTH 5 0
BBX 4 4 0 1
BITMAP
A0
50
50
A0
ENDCHAR

STARTCHAR onequarter
ENCODING 188
SWIDTH 684 0
DWIDTH 7 0
BBX 7 8 0 0
BITMAP
C8
48
50
50
24
2C
5E
44
ENDCHAR

STARTCHAR onehalf
ENCODING 189
SWIDTH 684 0
DWIDTH 7 0
BBX 6 8 0 0
BITMAP
C8
48
50
50
2C
34
48
5C
ENDCHAR

STARTCHAR threequarters
ENCODING 190
SWIDTH 684 0
DWIDTH 7 0
BBX 7 8 0 0
BITMAP
E8
48
30
D0
24
2C
5E
44
ENDCHAR

STARTCHAR questiondown
ENCODING 191
SWIDTH 501 0
DWIDTH 5 0
BBX 5 8 0 -2
BITMAP
30
30
00
30
60
C0
D8
70
ENDCHAR

STARTCHAR Agrave
ENCODING 192
SWIDTH 592 0
DWIDTH 6 0
BBX 5 9 0 0
BITMAP
20
10
00
20
30
50
78
D8
D8
ENDCHAR

STARTCHAR Aacute
ENCODING 193
SWIDTH 592 0
DWIDTH 6 0
BBX 5 9 0 0
BITMAP
10
20
00
20
30
50
78
D8
D8
ENDCHAR

STARTCHAR Acircumflex
ENCODING 194
SWIDTH 592 0
DWIDTH 6 0
BBX 5 9 0 0
BITMAP
30
68
00
20
30
50
78
D8
D8
ENDCHAR

STARTCHAR Atilde
ENCODING 195
SWIDTH 592 0
DWIDTH 6 0
BBX 6 9 0 0
BITMAP
34
58
00
20
30
50
78
D8
D8
ENDCHAR

STARTCHAR Adieresis
ENCODING 196
SWIDTH 592 0
DWIDTH 6 0
BBX 5 8 0 0
BITMAP
50
00
20
30
50
78
D8
D8
ENDCHAR

STARTCHAR Aring
ENCODING 197
SWIDTH 592 0
DWIDTH 6 0
BBX 5 9 0 0
BITMAP
30
68
30
20
30
50
78
D8
D8
ENDCHAR

STARTCHAR AE
ENCODING 198
SWIDTH 820 0
DWIDTH 9 0
BBX 8 8 0 0
BITMAP
3F
3C
6C
6F
6C
FC
CC
CF
ENDCHAR

STARTCHAR Ccedilla
ENCODING 199
SWIDTH 592 0
DWIDTH 6 0
BBX 5 10 0 -2
BITMAP
70
D8
C0
C0
C0
C0
D8
70
20
60
ENDCHAR

STARTCHAR Egrave
ENCODING 200
SWIDTH 547 0
DWIDTH 6 0
BBX 4 9 1 0
BITMAP
40
20
00
F0
C0
F0
C0
C0
F0
ENDCHAR

STARTCHAR Eacute
ENCODING 201
SWIDTH 547 0
DWIDTH 6 0
BBX 4 9 1 0
BITMAP
20
40
00
F0
C0
F0
C0
C0
F0
ENDCHAR

STARTCHAR Ecircumflex
ENCODING 202
SWIDTH 547 0
DWIDTH 6 0
BBX 4 9 1 0
BITMAP
60
D0
00
F0
C0
F0
C0
C0
F0
ENDCHAR

STARTCHAR Edieresis
ENCODING 203
SWIDTH 547 0
DWIDTH 6 0
BBX 4 8 1 0
BITMAP
50
00
F0
C0
F0
C0
C0
F0
ENDCHAR

STARTCHAR Igrave
ENCODING 204
SWIDTH 228 0
DWIDTH 3 0
BBX 2 9 0 0
BITMAP
80
40
00
C0
C0
C0
C0
C0
C0
ENDCHAR

STARTCHAR Iacute
ENCODING 205
SWIDTH 228 0
DWIDTH 3 0
BBX 2 9 0 0
BITMAP
40
80
00
C0
C0
C0
C0
C0
C0
ENDCHAR

STARTCHAR Icircumflex
ENCODING 206
SWIDTH 228 0
DWIDTH 3 0
BBX 4 9 -1 0
BITMAP
60
D0
00
60
60
60
60
60
60
ENDCHAR

STARTCHAR Idieresis
ENCODING 207
SWIDTH 228 0
DWIDTH 3 0
BBX 3 8 0 0
BITMAP
A0
00
C0
C0
C0
C0
C0
C0
ENDCHAR

STARTCHAR Eth
ENCODING 208
SWIDTH 592 0
DWIDTH 6 0
BBX 6 8 -1 0
BITMAP
78
6C
6C
FC
6C
6C
6C
78
ENDCHAR

STARTCHAR Ntilde
ENCODING 209
SWIDTH 592 0
DWIDTH 6 0
BBX 5 9 0 0
BITMAP
68
B0
00
C8
E8
F8
B8
98
88
ENDCHAR

STARTCHAR Ograve
ENCODING 210
SWIDTH 638 0
DWIDTH 7 0
BBX 5 9 1 0
BITMAP
40
20
00
70
D8
D8
D8
D8
70
ENDCHAR

STARTCHAR Oacute
ENCODING 211
SWIDTH 638 0
DWIDTH 7 0
BBX 5 9 1 0
BITMAP
10
20
00
70
D8
D8
D8
D8
70
ENDCHAR

STARTCHAR Ocircumflex
ENCODING 212
SWIDTH 638 0
DWIDTH 7 0
BBX 5 9 1 0
BITMAP
60
D0
00
70
D8
D8
D8
D8
70
ENDCHAR

STARTCHAR Otilde
ENCODING 213
SWIDTH 638 0
DWIDTH 7 0
BBX 5 9 1 0
BITMAP
68
B0
00
70
D8
D8
D8
D8
70
ENDCHAR

STARTCHAR Odieresis
ENCODING 214
SWIDTH 638 0
DWIDTH 7 0
BBX 5 8 1 0
BITMAP
50
00
70
D8
D8
D8
D8
70
ENDCHAR

STARTCHAR multiply
ENCODING 215
SWIDTH 479 0
DWIDTH 5 0
BBX 5 5 0 0
BITMAP
88
50
20
50
88
ENDCHAR

STARTCHAR Oslash
ENCODING 216
SWIDTH 638 0
DWIDTH 7 0
BBX 7 8 0 0
BITMAP
3A
6E
6C
7C
7C
6C
EC
B8
ENDCHAR

STARTCHAR Ugrave
ENCODING 217
SWIDTH 592 0
DWIDTH 6 0
BBX 5 9 0 0
BITMAP
40
20
00
D8
D8
D8
D8
D8
70
ENDCHAR

STARTCHAR Uacute
ENCODING 218
SWIDTH 592 0
DWIDTH 6 0
BBX 5 9 0 0
BITMAP
10
20
00
D8
D8
D8
D8
D8
70
ENDCHAR

STARTCHAR Ucircumflex
ENCODING 219
SWIDTH 592 0
DWIDTH 6 0
BBX 5 9 0 0
BITMAP
60
D0
00
D8
D8
D8
D8
D8
70
ENDCHAR

STARTCHAR Udieresis
ENCODING 220
SWIDTH 592 0
DWIDTH 6 0
BBX 5 8 0 0
BITMAP
50
00
D8
D8
D8
D8
D8
70
ENDCHAR

STARTCHAR Yacute
ENCODING 221
SWIDTH 547 0
DWIDTH 6 0
BBX 6 9 0 0
BITMAP
10
20
00
CC
CC
78
30
30
30
ENDCHAR

STARTCHAR Thorn
ENCODING 222
SWIDTH 547 0
DWIDTH 6 0
BBX 5 8 0 0
BITMAP
C0
F0
D8
D8
D8
F0
C0
C0
ENDCHAR

STARTCHAR germandbls
ENCODING 223
SWIDTH 501 0
DWIDTH 5 0
BBX 4 8 0 0
BITMAP
60
D0
D0
E0
D0
D0
D0
E0
ENDCHAR

STARTCHAR agrave
ENCODING 224
SWIDTH 456 0
DWIDTH 5 0
BBX 4 9 0 0
BITMAP
40
20
00
E0
30
70
D0
D0
70
ENDCHAR

STARTCHAR aacute
ENCODING 225
SWIDTH 456 0
DWIDTH 5 0
BBX 4 9 0 0
BITMAP
20
40
00
E0
30
70
D0
D0
70
ENDCHAR

STARTCHAR acircumflex
ENCODING 226
SWIDTH 456 0
DWIDTH 5 0
BBX 4 9 0 0
BITMAP
60
D0
00
E0
30
70
D0
D0
70
ENDCHAR

STARTCHAR atilde
ENCODING 227
SWIDTH 456 0
DWIDTH 5 0
BBX 5 9 0 0
BITMAP
68
B0
00
E0
30
70
D0
D0
70
ENDCHAR

STARTCHAR adieresis
ENCODING 228
SWIDTH 456 0
DWIDTH 5 0
BBX 4 8 0 0
BITMAP
A0
00
E0
30
70
D0
D0
70
ENDCHAR

STARTCHAR aring
ENCODING 229
SWIDTH 456 0
DWIDTH 5 0
BBX 4 9 0 0
BITMAP
60
D0
60
E0
30
70
D0
D0
70
ENDCHAR

STARTCHAR ae
ENCODING 230
SWIDTH 729 0
DWIDTH 8 0
BBX 7 6 0 0
BITMAP
EC
3A
7E
D8
DA
7C
ENDCHAR

STARTCHAR ccedilla
ENCODING 231
SWIDTH 456 0
DWIDTH 5 0
BBX 4 8 0 -2
BITMAP
60
D0
C0
C0
D0
60
20
60
ENDCHAR

STARTCHAR egrave
ENCODING 232
SWIDTH 456 0
DWIDTH 5 0
BBX 4 9 0 0
BITMAP
40
20
00
60
D0
F0
C0
D0
60
ENDCHAR

STARTCHAR eacute
ENCODING 233
SWIDTH 456 0
DWIDTH 5 0
BBX 4 9 0 0
BITMAP
20
40
00
60
D0
F0
C0
D0
60
ENDCHAR

STARTCHAR ecircumflex
ENCODING 234
SWIDTH 456 0
DWIDTH 5 0
BBX 4 9 0 0
BITMAP
60
D0
00
60
D0
F0
C0
D0
60
ENDCHAR

STARTCHAR edieresis
ENCODING 235
SWIDTH 456 0
DWIDTH 5 0
BBX 4 8 0 0
BITMAP
A0
00
60
D0
F0
C0
D0
60
ENDCHAR

STARTCHAR igrave
ENCODING 236
SWIDTH 228 0
DWIDTH 2 0
BBX 2 9 0 0
BITMAP
80
40
00
80
80
80
80
80
80
ENDCHAR

STARTCHAR iacute
ENCODING 237
SWIDTH 228 0
DWIDTH 2 0
BBX 2 9 0 0
BITMAP
40
80
00
80
80
80
80
80
80
ENDCHAR

STARTCHAR icircumflex
ENCODING 238
SWIDTH 228 0
DWIDTH 2 0
BBX 4 9 -1 0
BITMAP
60
D0
00
40
40
40
40
40
40
ENDCHAR

STARTCHAR idieresis
ENCODING 239
SWIDTH 228 0
DWIDTH 2 0
BBX 3 8 -1 0
BITMAP
A0
00
40
40
40
40
40
40
ENDCHAR

STARTCHAR eth
ENCODING 240
SWIDTH 501 0
DWIDTH 5 0
BBX 4 9 0 0
BITMAP
A0
40
A0
60
B0
B0
B0
B0
60
ENDCHAR

STARTCHAR ntilde
ENCODING 241
SWIDTH 501 0
DWIDTH 5 0
BBX 5 9 0 0
BITMAP
68
B0
00
A0
F0
B0
B0
B0
B0
ENDCHAR

STARTCHAR ograve
ENCODING 242
SWIDTH 501 0
DWIDTH 5 0
BBX 4 9 0 0
BITMAP
40
20
00
60
B0
B0
B0
B0
60
ENDCHAR

STARTCHAR oacute
ENCODING 243
SWIDTH 501 0
DWIDTH 5 0
BBX 4 9 0 0
BITMAP
20
40
00
60
B0
B0
B0
B0
60
ENDCHAR

STARTCHAR ocircumflex
ENCODING 244
SWIDTH 501 0
DWIDTH 5 0
BBX 4 9 0 0
BITMAP
60
D0
00
60
B0
B0
B0
B0
60
ENDCHAR

STARTCHAR otilde
ENCODING 245
SWIDTH 501 0
DWIDTH 5 0
BBX 5 9 0 0
BITMAP
68
B0
00
60
B0
B0
B0
B0
60
ENDCHAR

STARTCHAR odieresis
ENCODING 246
SWIDTH 501 0
DWIDTH 5 0
BBX 4 8 0 0
BITMAP
A0
00
60
B0
B0
B0
B0
60
ENDCHAR

STARTCHAR divide
ENCODING 247
SWIDTH 479 0
DWIDTH 5 0
BBX 5 5 0 0
BITMAP
20
00
F8
00
20
ENDCHAR

STARTCHAR oslash
ENCODING 248
SWIDTH 501 0
DWIDTH 5 0
BBX 6 6 -1 0
BITMAP
34
58
78
58
58
B0
ENDCHAR

STARTCHAR ugrave
ENCODING 249
SWIDTH 501 0
DWIDTH 5 0
BBX 4 9 0 0
BITMAP
40
20
00
B0
B0
B0
B0
B0
50
ENDCHAR

STARTCHAR uacute
ENCODING 250
SWIDTH 501 0
DWIDTH 5 0
BBX 4 9 0 0
BITMAP
20
40
00
B0
B0
B0
B0
B0
50
ENDCHAR

STARTCHAR ucircumflex
ENCODING 251
SWIDTH 501 0
DWIDTH 5 0
BBX 4 9 0 0
BITMAP
60
D0
00
B0
B0
B0
B0
B0
50
ENDCHAR

STARTCHAR udieresis
ENCODING 252
SWIDTH 501 0
DWIDTH 5 0
BBX 4 8 0 0
BITMAP
A0
00
B0
B0
B0
B0
B0
50
ENDCHAR

STARTCHAR yacute
ENCODING 253
SWIDTH 456 0
DWIDTH 5 0
BBX 4 11 0 -2
BITMAP
20
40
00
B0
B0
B0
70
60
60
40
C0
ENDCHAR

STARTCHAR thorn
ENCODING 254
SWIDTH 501 0
DWIDTH 5 0
BBX 4 10 0 -2
BITMAP
80
80
E0
F0
90
90
F0
E0
80
80
ENDCHAR

STARTCHAR ydieresis
ENCODING 255
SWIDTH 456 0
DWIDTH 5 0
BBX 4 10 0 -2
BITMAP
A0
00
B0
B0
B0
70
60
60
40
C0
ENDCHAR
ENDFONT
